<svg version="1.1" id="Layer_1" xmlns="http://www.w3.org/2000/svg" xmlns:xlink="http://www.w3.org/1999/xlink" x="0px" y="0px"
	 width="100%" viewBox="0 0 352 192" enable-background="new 0 0 352 192" xml:space="preserve">
<path fill="#000000" opacity="1.000000" stroke="none" 
	d="
M131.093414,88.689896 
	C127.964096,82.186073 128.221222,81.543571 134.671249,79.922440 
	C139.250977,78.771393 143.718002,78.408730 148.282532,80.559563 
	C156.222565,84.300941 157.211670,90.652847 150.360535,95.848419 
	C148.893265,96.961121 147.811813,98.068344 148.921371,99.980110 
	C150.012329,101.859825 151.562424,101.777359 153.188095,100.801712 
	C158.020950,97.901253 161.380692,100.327538 164.337433,103.921684 
	C167.628845,107.922630 169.661514,118.535965 167.092834,119.711952 
	C162.172913,121.964371 157.420319,119.678658 152.974625,117.363289 
	C149.900284,115.762154 148.353714,112.739151 146.633698,109.504982 
	C142.537018,112.364372 138.053650,113.382957 133.454361,113.885124 
	C129.234100,114.345917 127.893646,112.663483 129.213791,108.584938 
	C130.826935,103.601227 134.071808,99.987106 139.426971,97.857155 
	C136.832550,94.430695 133.054413,92.588196 131.093414,88.689896 
z"/>
<path fill="#000000" opacity="1.000000" stroke="none" 
	d="
M228.009277,97.599823 
	C228.650314,109.036346 222.827499,113.895859 211.822266,111.450325 
	C210.099091,113.337448 211.278519,115.876305 210.502335,118.001526 
	C209.920395,119.594849 209.080780,120.682983 207.310577,120.508209 
	C205.762177,120.355331 204.885193,119.164009 204.875519,117.770363 
	C204.815659,109.136856 204.826996,100.501854 204.941742,91.869041 
	C204.963303,90.246994 206.350128,88.463913 207.770172,89.185509 
	C210.751846,90.700653 213.221680,89.094711 215.910736,88.804642 
	C221.319351,88.221199 225.377655,91.089851 228.009277,97.599823 
M222.233521,99.802589 
	C221.518814,96.867493 220.195786,94.514374 216.757248,94.341629 
	C214.119919,94.209129 212.372025,95.539772 211.373032,97.899567 
	C209.891388,101.399384 211.528702,105.600563 214.963226,106.379303 
	C219.643234,107.440460 221.582932,104.619820 222.233521,99.802589 
z"/>
<path fill="#000000" opacity="1.000000" stroke="none" 
	d="
M202.303528,85.418205 
	C202.299484,93.028954 202.351334,100.189499 202.253021,107.347977 
	C202.209442,110.520706 201.586761,113.386070 197.281403,111.263557 
	C196.052261,110.657616 195.045761,111.210594 193.933380,111.508911 
	C188.195419,113.047729 183.998566,111.804291 181.045227,107.739761 
	C177.909607,103.424377 177.820770,97.723389 181.040573,93.267395 
	C184.306305,88.747787 188.734756,87.859863 193.867157,89.600174 
	C194.317505,89.752876 194.845016,89.678047 195.340790,89.709160 
	C197.161880,88.576904 196.535629,86.752441 196.648331,85.178337 
	C196.790588,83.191353 196.470352,80.819427 199.357986,80.726990 
	C202.224075,80.635239 202.219238,82.919090 202.303528,85.418205 
M190.492203,94.346748 
	C188.449036,94.295845 187.033646,95.401138 185.897598,96.928413 
	C184.228088,99.172867 184.097656,101.590347 185.563629,103.936104 
	C186.917557,106.102615 188.990524,107.120720 191.552704,106.581856 
	C194.083405,106.049606 195.826324,104.274498 196.176300,101.860962 
	C196.717346,98.129753 195.074051,95.423485 190.492203,94.346748 
z"/>
<path fill="#000000" opacity="1.000000" stroke="none" 
	d="
M170.924316,106.595070 
	C170.925079,101.998573 170.894302,97.855507 170.966049,93.714218 
	C171.004501,91.494576 171.244293,88.978394 174.174500,89.077415 
	C177.008636,89.173203 177.230545,91.634727 177.244232,93.883667 
	C177.270447,98.191185 177.282700,102.498894 177.273727,106.806465 
	C177.269150,109.001526 177.296814,111.642220 174.531723,111.899155 
	C171.342178,112.195541 171.171829,109.404747 170.924316,106.595070 
z"/>
<path fill="#000000" opacity="1.000000" stroke="none" 
	d="
M176.802078,85.817642 
	C174.439987,87.547775 172.497467,87.484573 171.085098,85.236633 
	C170.160507,83.765015 170.118851,82.038681 171.321945,80.664101 
	C172.699722,79.089912 174.590790,79.015526 176.226181,80.056404 
	C178.418411,81.451675 178.478317,83.455475 176.802078,85.817642 
z"/>
</svg>