<?xml version="1.0" standalone="no"?>
<!DOCTYPE svg PUBLIC "-//W3C//DTD SVG 20010904//EN"
 "http://www.w3.org/TR/2001/REC-SVG-20010904/DTD/svg10.dtd">
<svg version="1.0" xmlns="http://www.w3.org/2000/svg"
 width="74.000000pt" height="26.000000pt" viewBox="0 0 74.000000 26.000000"
 preserveAspectRatio="xMidYMid meet">
<metadata>
Created by potrace 1.10, written by Peter Selinger 2001-2011
</metadata>
<g transform="translate(0.000000,26.000000) scale(0.100000,-0.100000)"
fill="#fa0000" stroke="none">
<path d="M593 229 c-28 -10 -46 -44 -38 -70 4 -13 29 -30 61 -45 60 -26 67
-40 27 -50 -21 -6 -30 -2 -41 14 -18 27 -52 29 -52 4 0 -30 33 -52 76 -52 52
0 84 23 84 59 0 34 -13 46 -66 63 -22 7 -39 20 -39 28 0 21 29 24 48 5 17 -16
57 -21 57 -6 0 5 -8 18 -17 30 -20 23 -67 33 -100 20z"/>
<path d="M28 130 c3 -98 4 -100 28 -100 24 0 24 1 24 100 l0 100 -27 0 -28 0
3 -100z"/>
<path d="M100 130 l0 -100 75 0 c68 0 75 2 75 20 0 17 -7 20 -50 20 -47 0 -50
1 -50 26 0 25 2 26 50 22 42 -2 50 0 50 15 0 14 -9 17 -49 17 -40 0 -50 3 -54
20 -5 18 0 20 49 20 47 0 54 2 54 20 0 18 -7 20 -75 20 l-75 0 0 -100z"/>
<path d="M270 130 l0 -100 75 0 c68 0 75 2 75 20 0 17 -7 20 -51 20 l-51 0 4
80 3 80 -27 0 -28 0 0 -100z"/>
<path d="M380 210 c0 -16 7 -20 30 -20 l30 0 0 -80 c0 -79 0 -80 25 -80 25 0
25 1 25 84 0 82 0 83 24 79 17 -4 25 0 29 16 5 20 1 21 -79 21 -77 0 -84 -2
-84 -20z"/>
</g>
</svg>
